Coordinates
version=1
nRows=11
nColumns=46
inDegrees=yes

Units are S.I. units (second, meters, Newtons, ...)
Angles are in degrees.

endheader
time	pelvis_tilt	pelvis_list	pelvis_rotation	pelvis_tx	pelvis_ty	pelvis_tz	bb_angle	bb_tx	bb_ty	bb_tz	hip_flexion_r	hip_adduction_r	hip_rotation_r	knee_angle_r	knee_angle_r_beta	ankle_angle_r	subtalar_angle_r	mtp_angle_r	crank_angle_r	hip_flexion_l	hip_adduction_l	hip_rotation_l	knee_angle_l	knee_angle_l_beta	ankle_angle_l	subtalar_angle_l	mtp_angle_l	crank_angle_l	lumbar_extension	lumbar_bending	lumbar_rotation	arm_flex_r	arm_add_r	arm_rot_r	elbow_flex_r	pro_sup_r	wrist_flex_r	wrist_dev_r	arm_flex_l	arm_add_l	arm_rot_l	elbow_flex_l	pro_sup_l	wrist_flex_l	wrist_dev_l
      0.00500000	    -14.32096887	      4.10824756	      0.91400557	      0.11087128	      1.07701451	     -0.26588029	      0.00000000	      0.50000000	      0.00000000	      0.25000000	     39.52593692	     -9.20194827	     -1.94897763	     45.24449756	      0.78966545	      8.95785538	     -5.26556413	      0.00000000	      0.00000000	     92.11661803	     -2.68411489	     -2.04475163	    109.75603511	      1.91560419	     18.79537663	     -9.55324185	      0.00000000	      0.00000000	    -51.77552627	     -0.79318719	     -3.70367379	     89.65987891	     -4.40574320	     40.92097764	     24.66614947	     25.00025833	      0.00000000	      0.00000000	     89.60837650	     -4.08585148	     42.01824621	     26.28654471	     25.16041562	      0.00000000	      0.00000000
      0.01000000	    -14.61775303	      4.16580258	      0.85142391	      0.11087664	      1.07646863	     -0.26580663	      0.00000000	      0.50000000	      0.00000000	      0.25000000	     39.96391033	     -9.19997928	     -1.80389015	     45.44253660	      0.79312188	      8.94189697	     -5.31727752	      0.00000000	      0.00000000	     92.43111864	     -2.75288134	     -2.09856568	    109.71599754	      1.91490540	     18.79355102	     -9.50064448	      0.00000000	      0.00000000	    -51.35988398	     -0.91862966	     -3.69735743	     89.66087454	     -4.17440812	     40.99517045	     23.88553566	     25.30590378	      0.00000000	      0.00000000	     89.60989751	     -3.85362835	     42.23159349	     25.46079784	     25.50386259	      0.00000000	      0.00000000
      0.01500000	    -14.40414013	      4.14883227	      0.87107524	      0.11083069	      1.07679326	     -0.26581068	      0.00000000	      0.50000000	      0.00000000	      0.25000000	     39.72823272	     -9.19174321	     -1.81323637	     45.47205444	      0.79363707	      8.94707377	     -5.40012875	      0.00000000	      0.00000000	     92.17774137	     -2.69987385	     -1.99252667	    109.72827949	      1.91511976	     18.91852262	     -9.30180294	      0.00000000	      0.00000000	    -51.71199548	     -0.85066190	     -3.68749605	     89.65699142	     -4.31264070	     40.11807245	     24.55978392	     26.11005741	      0.00000000	      0.00000000	     89.59792202	     -3.96472484	     41.37390013	     26.14007600	     26.31628822	      0.00000000	      0.00000000
      0.02000000	    -14.61733880	      4.01357749	      0.70953505	      0.11099754	      1.07612072	     -0.26590723	      0.00000000	      0.50000000	      0.00000000	      0.25000000	     40.05284536	     -9.01202821	     -1.80241628	     45.65852703	      0.79689163	      8.95790310	     -5.32947259	      0.00000000	      0.00000000	     92.50232799	     -2.85874792	     -1.83243271	    109.77785926	      1.91598509	     18.84121449	     -9.24240643	      0.00000000	      0.00000000	    -51.31884708	     -0.87651853	     -3.48921523	     89.66088525	     -4.49323434	     42.17237070	     24.06615302	     25.36872800	      0.00000000	      0.00000000	     89.61456879	     -4.04590312	     43.17128566	     25.64376839	     25.67899085	      0.00000000	      0.00000000
      0.02500000	    -14.53772283	      3.93789587	      0.53107814	      0.11128369	      1.07595997	     -0.26590338	      0.00000000	      0.50000000	      0.00000000	      0.25000000	     40.00660143	     -8.84826833	     -1.70983844	     45.75184993	      0.79852042	      9.01755430	     -5.32481298	      0.00000000	      0.00000000	     92.46070118	     -2.97339249	     -1.69209571	    109.81240800	      1.91658808	     18.83746197	     -9.22344862	      0.00000000	      0.00000000	    -51.37043191	     -0.93917148	     -3.27197812	     89.65798430	     -4.39478091	     41.33921053	     24.11918377	     25.00417741	      0.00000000	      0.00000000	     89.60780867	     -3.75200787	     42.56734387	     25.48047675	     25.37154419	      0.00000000	      0.00000000
      0.03000000	    -14.60849638	      3.81393514	      0.42664171	      0.11128964	      1.07553101	     -0.26604871	      0.00000000	      0.50000000	      0.00000000	      0.25000000	     40.15906951	     -8.70350508	     -1.70689083	     45.89733478	      0.80105961	      8.97581812	     -5.34255524	      0.00000000	      0.00000000	     92.66143225	     -3.16973227	     -1.68810697	    109.82856366	      1.91687005	     18.62123268	     -9.49008986	      0.00000000	      0.00000000	    -51.28237819	     -0.91123755	     -3.13777236	     89.65427659	     -4.00039776	     39.40849576	     23.46138663	     28.26652041	      0.00000000	      0.00000000	     89.59993992	     -3.40661652	     40.70303502	     24.83119106	     28.61706641	      0.00000000	      0.00000000
      0.03500000	    -14.64615851	      3.68862029	      0.33233281	      0.11130011	      1.07516389	     -0.26612194	      0.00000000	      0.50000000	      0.00000000	      0.25000000	     40.25826778	     -8.53443432	     -1.66289321	     46.03096567	      0.80339191	      9.02731106	     -5.34549065	      0.00000000	      0.00000000	     92.78436999	     -3.25997031	     -1.56914382	    109.87801212	      1.91773309	     18.54897118	     -9.53717393	      0.00000000	      0.00000000	    -51.16220092	     -0.90122427	     -2.88941110	     89.66187616	     -4.73785119	     42.39477085	     23.87594868	     26.38045058	      0.00000000	      0.00000000	     89.60159683	     -3.86824582	     43.92580527	     24.71923589	     26.81931870	      0.00000000	      0.00000000
      0.04000000	    -14.68159592	      3.58756308	      0.22934334	      0.11135086	      1.07486282	     -0.26617485	      0.00000000	      0.50000000	      0.00000000	      0.25000000	     40.35023903	     -8.38854431	     -1.62559274	     46.14658823	      0.80540990	      9.03064488	     -5.38203201	      0.00000000	      0.00000000	     92.88599437	     -3.36714259	     -1.47819433	    109.92085941	      1.91848091	     18.52452259	     -9.57113523	      0.00000000	      0.00000000	    -51.09540656	     -0.88532956	     -2.75013887	     89.66159799	     -4.74208401	     42.55592904	     23.89274736	     25.83121221	      0.00000000	      0.00000000	     89.59840271	     -3.83666822	     44.00139151	     24.73195352	     26.27148863	      0.00000000	      0.00000000
      0.04500000	    -14.36295882	      3.41772348	      0.06368232	      0.11157372	      1.07520609	     -0.26610254	      0.00000000	      0.50000000	      0.00000000	      0.25000000	     39.96727120	     -8.14889395	     -1.62934814	     46.10278647	      0.80464542	      9.09570242	     -5.40927418	      0.00000000	      0.00000000	     92.58584307	     -3.48459234	     -1.27058672	    109.99751804	      1.91981886	     18.51569662	     -9.69994476	      0.00000000	      0.00000000	    -51.59142441	     -0.77900538	     -2.51716981	     89.65835179	     -4.72819259	     40.80271805	     24.76961216	     26.70614877	      0.00000000	      0.00000000	     89.57530803	     -3.95884296	     42.15518601	     25.89570481	     27.16592799	      0.00000000	      0.00000000
      0.05000000	    -14.68217865	      3.39392934	     -0.02317060	      0.11164935	      1.07444145	     -0.26613471	      0.00000000	      0.50000000	      0.00000000	      0.25000000	     40.42567216	     -8.06384239	     -1.50741306	     46.32164947	      0.80846530	      9.03185095	     -5.46704155	      0.00000000	      0.00000000	     92.96570744	     -3.57302485	     -1.23389206	    110.01133558	      1.92006002	     18.55811847	     -9.60981230	      0.00000000	      0.00000000	    -51.05064356	     -0.90486092	     -2.46860881	     89.66082017	     -4.74355441	     42.59359642	     23.81294948	     26.09379623	      0.00000000	      0.00000000	     89.59423686	     -3.78906543	     43.78109482	     24.85240705	     26.55252424	      0.00000000	      0.00000000
      0.05500000	    -14.68937836	      3.32601746	     -0.12086370	      0.11169389	      1.07421660	     -0.26615281	      0.00000000	      0.50000000	      0.00000000	      0.25000000	     40.48832406	     -7.95012713	     -1.45945632	     46.43180265	      0.81038783	      9.05751649	     -5.47192634	      0.00000000	      0.00000000	     93.02061299	     -3.67696795	     -1.17923027	    110.03937208	      1.92054935	     18.53135457	     -9.65567502	      0.00000000	      0.00000000	    -51.02365961	     -0.90970378	     -2.35568565	     89.65902190	     -4.68533807	     42.41392327	     23.93615319	     25.25321191	      0.00000000	      0.00000000	     89.59076158	     -3.69336861	     43.54361572	     24.90720312	     25.70743381	      0.00000000	      0.00000000
